<?xml version="1.0" encoding="utf-8" standalone="no"?>
<svg viewBox="0 0 256 256" xmlns="http://www.w3.org/2000/svg" xmlns:xlink="http://www.w3.org/1999/xlink">

<g id="square">
	<svg xmlns:xlink="http://www.w3.org/1999/xlink" xmlns="http://www.w3.org/2000/svg" viewBox="0 0 163 163">
	 <!-- created with SVG-edit - http://svg-edit.googlecode.com/ -->
	 <defs>
	  <linearGradient id="square_gradient_1" y2="1.0" x2="1.0" y1="0.1015625" x1="0.36328125">
	   <stop stop-opacity="1" stop-color="#ffffff" offset="0.0"/>
	   <stop stop-opacity="1" stop-color="#3b7e9b" offset="1.0"/>
	  </linearGradient>
	 </defs>
	  <rect stroke-opacity="1" fill-opacity="1" stroke-width="5" stroke="#000000" fill="url(#square_gradient_1)" height="140" width="140" y="12" x="12"/>
	</svg>
</g>

<g id="circle">
<svg xmlns:xlink="http://www.w3.org/1999/xlink" xmlns="http://www.w3.org/2000/svg" viewBox="0 0 54 54">
 <defs>
  <linearGradient id="circle_gradient_1" y2="1.0" x2="1.0" y1="0.1875" x1="0.171875">
   <stop stop-opacity="1" stop-color="#ffffff" offset="0.0"/>
   <stop stop-opacity="1" stop-color="#ff6666" offset="1.0"/>
  </linearGradient>
 </defs>
  <circle stroke-opacity="1" fill-opacity="1" style="pointer-events: all;" stroke-width="2" stroke="#000000" fill="url(#circle_gradient_1)" r="23.5" cy="27" cx="27"/>
</svg>
</g>

<g id="pencil">
<svg viewBox="0 0 48 52" xmlns="http://www.w3.org/2000/svg" xmlns:xlink="http://www.w3.org/1999/xlink">
  <defs>
   <linearGradient id="pencil_gradient_1" x1="0.3046" y1="0.1093" x2="0.6132" y2="0.3945">
    <stop offset="0.0" stop-color="#f9d225" stop-opacity="1"/>
    <stop offset="1.0" stop-color="#bf5f00" stop-opacity="1"/>
   </linearGradient>
  </defs>
  <path d="M31.5,0 l-8.75,20.25 l0.75,24 l16.5,-16.5 l6,-12.5" fill="url(#pencil_gradient_1)" stroke="#000000" stroke-width="2" fill-opacity="1" stroke-opacity="1"/>
  <path d="M39.5,28.5 c-2,-9.25 -10.25,-11.75 -17,-7.4375 l0.4843,24.4414z" fill="#fce0a9" stroke="#000000" stroke-width="2" fill-opacity="1" stroke-opacity="1"/>
  <path d="M26.9318,41.1745 c-0.4491,-2.3511 -2.3021,-2.9866 -3.8181,-1.8905 l0.1087,6.2126z" fill="#000000" stroke="#000000" stroke-width="2" fill-opacity="1" stroke-opacity="1"/>
  <path d="M2.3132,4.6197 c12.4998,-1.6891 10.4729,7.0945 0,21.6215 c22.9729,-4.0539 12.1620,5.4053 12.1620,13.1756 c-0.3377,4.0539 8.7836,21.9594 26.0135,-1.3513" fill="none" stroke="#000000" stroke-width="2" fill-opacity="1" stroke-opacity="1"/>
</svg></g>


<g id="text">
	<svg viewBox="0 0 158 128" xmlns="http://www.w3.org/2000/svg" xmlns:xlink="http://www.w3.org/1999/xlink">
	 <!-- created with SVG-edit - http://svg-edit.googlecode.com/ -->
	  <text x="58" y="120" fill="#000000" stroke="#000000" stroke-width="0" font-size="120pt" font-family="sans-serif" text-anchor="middle" fill-opacity="1" stroke-opacity="1" font-weight="bold">A</text>
	  <line x1="136" y1="7" x2="136" y2="121" stroke="#000000" fill="none" fill-opacity="1" stroke-opacity="1" stroke-width="5"/>
	  <line x1="120" y1="4" x2="152" y2="4" stroke="#000000" stroke-width="5" fill="none" fill-opacity="1" stroke-opacity="1"/>
	 <line x1="120" y1="124" x2="152" y2="124" stroke="#000000" stroke-width="5" fill="none" fill-opacity="1" stroke-opacity="1"/>
	</svg>
</g>

<g id="svg_eof"/>

</svg>